<svg width="73" height="73" viewBox="0 0 73 73" fill="none" xmlns="http://www.w3.org/2000/svg">
<rect width="72.6" height="72.6" rx="36.3" fill="white"/>
<path d="M53.6129 33.5993H51.5036C50.6146 25.9604 43.9852 19.8281 35.9997 19.8281C31.585 19.8281 27.5772 21.7567 24.8049 24.7701C24.0666 25.4933 24.0968 26.4576 24.6994 27.0151C25.3172 27.5876 26.2061 27.5876 26.9595 26.8945C29.2045 24.4688 32.4288 22.947 35.9997 22.947C42.3579 22.947 47.4958 27.6027 48.3546 33.5993H46.0493C44.8892 33.5993 44.5728 34.4581 45.2508 35.3923L48.8518 40.4849C49.4093 41.2383 50.253 41.2533 50.7954 40.4849L54.4115 35.4074C55.0895 34.4581 54.7882 33.5993 53.6129 33.5993ZM18.3864 37.2305H20.5108C21.3998 44.8694 28.0292 51.0017 35.9997 51.0017C40.4444 51.0017 44.4522 49.058 47.2246 46.0446C47.9478 45.3214 47.9176 44.3571 47.315 43.7997C46.6972 43.2271 45.8233 43.2271 45.0549 43.9353C42.8401 46.361 39.6157 47.8828 35.9997 47.8828C29.6565 47.8828 24.5186 43.2271 23.6598 37.2305H25.95C27.0951 37.2305 27.4266 36.3717 26.7486 35.4375L23.1325 30.3449C22.5901 29.5915 21.7463 29.5765 21.2039 30.3449L17.5878 35.4224C16.8948 36.3717 17.2112 37.2305 18.3864 37.2305Z" fill="#383838"/>
</svg>
