<svg width="9" height="10" viewBox="0 0 9 10" fill="none" xmlns="http://www.w3.org/2000/svg">
<path d="M1.89661 4.26737H2.84491V5.21567H1.89661V4.26737ZM8.53474 1.89661V8.53474C8.53474 9.0563 8.108 9.48304 7.58643 9.48304H0.948304C0.696798 9.48304 0.455593 9.38313 0.277752 9.20529C0.0999103 9.02745 0 8.78624 0 8.53474L0.00474152 1.89661C0.00474152 1.37504 0.421995 0.948304 0.948304 0.948304H1.42246V0H2.37076V0.948304H6.16398V0H7.11228V0.948304H7.58643C8.108 0.948304 8.53474 1.37504 8.53474 1.89661ZM0.948304 2.84491H7.58643V1.89661H0.948304V2.84491ZM7.58643 8.53474V3.79322H0.948304V8.53474H7.58643ZM5.68982 5.21567H6.63813V4.26737H5.68982V5.21567ZM3.79322 5.21567H4.74152V4.26737H3.79322V5.21567Z" fill="#555555"/>
</svg>
