<svg width="32" height="32" viewBox="0 0 32 32" fill="none" xmlns="http://www.w3.org/2000/svg">
<path d="M20.8717 25.6295C22.6295 25.6295 23.8248 25.1272 24.9097 23.952C24.98 23.8716 25.0503 23.7812 25.1206 23.7009C25.7132 23.0379 26.0045 22.3449 26.0045 21.702C26.0045 20.9487 25.6027 20.2656 24.7088 19.6529L21.7155 17.5636C20.7713 16.9107 19.6764 16.8605 18.8327 17.7042L18.0894 18.4475C17.8282 18.7087 17.5771 18.7288 17.2757 18.5179C16.7333 18.1562 15.7088 17.2522 15.0057 16.5491C14.2925 15.8359 13.5693 15.0324 13.1775 14.4196C12.9666 14.1083 12.9867 13.8672 13.2478 13.606L13.9911 12.8627C14.8349 12.019 14.7847 10.9241 14.1217 9.97991L11.9923 6.93638C11.3996 6.07254 10.6865 5.67076 9.93311 5.66071C9.29025 5.65067 8.60721 5.94196 7.94427 6.52455C7.86391 6.59486 7.78355 6.66518 7.70319 6.73549C6.50788 7.83036 5.99561 9.00558 5.99561 10.8337C5.99561 13.7969 7.71324 17.2924 11.0581 20.6172C14.3829 23.9219 17.8382 25.6295 20.8717 25.6295ZM20.8717 23.952C18.3103 23.9922 15.1262 22.1741 12.3338 19.4018C9.52128 16.6295 7.65297 13.3248 7.69315 10.7634C7.71324 9.68861 8.09494 8.74442 8.84828 8.08147C8.92864 8.0212 8.98891 7.97098 9.06927 7.91071C9.35052 7.66964 9.65186 7.53906 9.93311 7.53906C10.2244 7.53906 10.4856 7.6596 10.6865 7.96094L12.5648 10.7835C12.8059 11.125 12.8159 11.5167 12.4644 11.8583L11.6608 12.6518C10.8974 13.3951 10.9677 14.269 11.4498 14.952C11.9923 15.7054 13.0068 16.8605 13.8606 17.7042C14.7746 18.6083 16.0202 19.7232 16.7434 20.2455C17.4264 20.7277 18.3003 20.798 19.0436 20.0346L19.8371 19.231C20.1686 18.8795 20.5603 18.8895 20.9119 19.1205L23.6842 20.9687C23.9956 21.1696 24.1061 21.4208 24.1061 21.7121C24.1061 21.9933 23.9755 22.2946 23.7344 22.5859C23.6742 22.6562 23.624 22.7165 23.5637 22.7969C22.9007 23.5603 21.9565 23.942 20.8717 23.952Z" fill="#FAFAFA"/>
</svg>
