<svg width="73" height="73" viewBox="0 0 73 73" fill="none" xmlns="http://www.w3.org/2000/svg">
<rect width="72.6" height="72.6" rx="36.3" fill="white"/>
<path d="M34.5303 40.5791H34.3803V40.7291V42.1328C34.3803 42.4739 34.2659 42.7529 34.0764 42.9459C33.8872 43.1386 33.613 43.256 33.2734 43.256C32.9322 43.256 32.6486 43.1414 32.4513 42.9511C32.2544 42.7614 32.134 42.4873 32.134 42.1491V40.7291V40.5791H31.984H30.7108C30.51 40.5791 30.3586 40.5107 30.2574 40.4063C30.1554 40.3012 30.0936 40.1487 30.0936 39.9619C30.0936 39.7749 30.1557 39.6173 30.2589 39.5078C30.361 39.3993 30.5122 39.3284 30.7108 39.3284H31.984H32.134V39.1784V29.3686C32.134 28.9994 32.2465 28.7134 32.4342 28.5204C32.6216 28.3278 32.8984 28.2128 33.2571 28.2128H40.1289C40.4291 28.2128 40.6846 28.3149 40.8641 28.4857C41.0427 28.6556 41.1541 28.9012 41.1541 29.2054C41.1541 29.7834 40.7239 30.1816 40.1289 30.1816H34.5303H34.3803V30.3316V34.4449V34.5949H34.5303H39.5739C39.8755 34.5949 40.1269 34.6938 40.3016 34.8582C40.4754 35.0216 40.5828 35.2586 40.5828 35.5548C40.5828 35.8511 40.4754 36.088 40.3016 36.2515C40.1269 36.4158 39.8755 36.5148 39.5739 36.5148H34.5303H34.3803V36.6648V39.1784V39.3284H34.5303H37.8111C38.0097 39.3284 38.1609 39.3993 38.263 39.5078C38.3662 39.6173 38.4283 39.7749 38.4283 39.9619C38.4283 40.1487 38.3665 40.3012 38.2645 40.4063C38.1633 40.5107 38.0119 40.5791 37.8111 40.5791H34.5303ZM52.7268 35.359C52.7268 44.5146 45.1551 52.0865 35.983 52.0865C26.8273 52.0865 19.2555 44.5147 19.2555 35.359C19.2555 26.2031 26.8111 18.6314 35.9667 18.6314C45.139 18.6314 52.7268 26.2035 52.7268 35.359ZM22.3506 35.359C22.3506 42.9334 28.4076 49.024 35.983 49.024C43.5576 49.024 49.6645 42.9341 49.648 35.3586C49.6315 27.7838 43.5414 21.7102 35.9667 21.7102C28.4077 21.7102 22.3506 27.7844 22.3506 35.359Z" fill="#383838" stroke="black" stroke-width="0.3"/>
</svg>
