<svg width="20" height="19" viewBox="0 0 20 19" fill="none" xmlns="http://www.w3.org/2000/svg">
<path d="M9.99072 18.2422C14.9741 18.2422 19.0874 14.1289 19.0874 9.1543C19.0874 4.17969 14.9653 0.0664062 9.98193 0.0664062C5.00732 0.0664062 0.902832 4.17969 0.902832 9.1543C0.902832 14.1289 5.01611 18.2422 9.99072 18.2422ZM8.47021 13.6543C8.04834 13.6543 7.74951 13.373 7.74951 12.9512V12.1602H7.02881C6.76514 12.1602 6.59814 11.9756 6.59814 11.7207C6.59814 11.4746 6.76514 11.2988 7.02881 11.2988H7.74951V5.80566C7.74951 5.34863 8.02197 5.05859 8.46143 5.05859H12.3022C12.689 5.05859 12.9702 5.31348 12.9702 5.70019C12.9702 6.08691 12.689 6.3418 12.3022 6.3418H9.19092V8.62695H12.0034C12.3813 8.62695 12.6538 8.87305 12.6538 9.25976C12.6538 9.63769 12.3813 9.89258 12.0034 9.89258H9.19092V11.2988H11.019C11.2827 11.2988 11.4585 11.4746 11.4585 11.7207C11.4585 11.9756 11.2827 12.1602 11.019 12.1602H9.19092V12.9424C9.19092 13.3643 8.90088 13.6543 8.47021 13.6543Z" fill="#FFC747"/>
</svg>
