<svg width="99" height="26" viewBox="0 0 99 26" fill="none" xmlns="http://www.w3.org/2000/svg">
<g clip-path="url(#clip0)">
<path d="M50.7955 8.95097V10.6819H46.7748V22.455H44.8759V10.6819H43.125V8.92434H44.8759V7.745C44.8759 4.78144 46.2786 3.20898 48.7237 3.20898C49.6111 3.20898 50.2039 3.31424 50.8194 3.55011V5.30643C50.13 5.0972 49.6111 4.96531 48.9706 4.96531C47.4904 4.96531 46.7557 5.91005 46.7557 7.85026V8.95097H50.7955Z" fill="black"/>
<path d="M52.8906 22.4553V3.31445H54.7902V22.4553H52.8906Z" fill="black"/>
<path d="M64.3332 21.0115C66.0841 21.0115 67.3151 20.2506 68.3539 19.0979L69.5371 20.2252C68.2549 21.747 66.7008 22.7691 64.2891 22.7691C60.7872 22.7691 57.9258 19.9107 57.9258 15.6892C57.9258 11.7581 60.5152 8.60938 64.0422 8.60938C67.816 8.60938 69.9856 11.8088 69.9856 15.7945C69.9888 16.0061 69.9808 16.2178 69.9617 16.4285H59.8449C60.1133 19.3604 62.0896 21.0115 64.3332 21.0115ZM68.0581 14.9245C67.8661 12.4644 66.529 10.3137 63.9885 10.3137C61.7688 10.3137 60.0918 12.2805 59.8449 14.9284L68.0581 14.9245Z" fill="black"/>
<path d="M78.4426 21.0115C80.1935 21.0115 81.4244 20.2506 82.4621 19.0979L83.6453 20.2252C82.3631 21.747 80.8102 22.7691 78.3972 22.7691C74.8954 22.7691 72.0352 19.9107 72.0352 15.6892C72.0352 11.7581 74.6246 8.60938 78.1515 8.60938C81.9242 8.60938 84.095 11.8088 84.095 15.7945C84.0983 16.0062 84.09 16.2179 84.0699 16.4285H73.9507C74.225 19.3604 76.1978 21.0115 78.4426 21.0115ZM82.1663 14.9245C81.9695 12.4606 80.6372 10.3099 78.0967 10.3099C75.877 10.3099 74.2 12.2767 73.9531 14.9245H82.1663Z" fill="black"/>
<path d="M98.2449 22.4553H95.9787L91.4165 16.1363L88.827 18.9147V22.4553H86.9258V3.31445H88.8246V16.5294L95.7056 8.8992H98.0732L92.7213 14.7198L98.2449 22.4553Z" fill="black"/>
<path d="M50.7955 8.95097V10.6819H46.7748V22.455H44.8759V10.6819H43.125V8.92434H44.8759V7.745C44.8759 4.78144 46.2786 3.20898 48.7237 3.20898C49.6111 3.20898 50.2039 3.31424 50.8194 3.55011V5.30643C50.13 5.0972 49.6111 4.96531 48.9706 4.96531C47.4904 4.96531 46.7557 5.91005 46.7557 7.85026V8.95097H50.7955Z" fill="black"/>
<path d="M52.8906 22.4553V3.31445H54.7902V22.4553H52.8906Z" fill="black"/>
<path d="M64.3332 21.0115C66.0841 21.0115 67.3151 20.2506 68.3539 19.0979L69.5371 20.2252C68.2549 21.747 66.7008 22.7691 64.2891 22.7691C60.7872 22.7691 57.9258 19.9107 57.9258 15.6892C57.9258 11.7581 60.5152 8.60938 64.0422 8.60938C67.816 8.60938 69.9856 11.8088 69.9856 15.7945C69.9888 16.0061 69.9808 16.2178 69.9617 16.4285H59.8449C60.1133 19.3604 62.0896 21.0115 64.3332 21.0115ZM68.0581 14.9245C67.8661 12.4644 66.529 10.3137 63.9885 10.3137C61.7688 10.3137 60.0918 12.2805 59.8449 14.9284L68.0581 14.9245Z" fill="black"/>
<path d="M78.4426 21.0115C80.1935 21.0115 81.4244 20.2506 82.4621 19.0979L83.6453 20.2252C82.3631 21.747 80.8102 22.7691 78.3972 22.7691C74.8954 22.7691 72.0352 19.9107 72.0352 15.6892C72.0352 11.7581 74.6246 8.60938 78.1515 8.60938C81.9242 8.60938 84.095 11.8088 84.095 15.7945C84.0983 16.0062 84.09 16.2179 84.0699 16.4285H73.9507C74.225 19.3604 76.1978 21.0115 78.4426 21.0115ZM82.1663 14.9245C81.9695 12.4606 80.6372 10.3099 78.0967 10.3099C75.877 10.3099 74.2 12.2767 73.9531 14.9245H82.1663Z" fill="black"/>
<path d="M98.2449 22.4553H95.9787L91.4165 16.1363L88.827 18.9147V22.4553H86.9258V3.31445H88.8246V16.5294L95.7056 8.8992H98.0732L92.7213 14.7198L98.2449 22.4553Z" fill="black"/>
<path d="M24.8857 0.345703H11.9075C5.33331 0.345703 0.00390625 6.01186 0.00390625 13.0014C0.00390625 19.991 5.33331 25.6571 11.9075 25.6571H24.8857C31.4599 25.6571 36.7893 19.991 36.7893 13.0014C36.7893 6.01186 31.4599 0.345703 24.8857 0.345703Z" fill="url(#paint0_linear)"/>
<path opacity="0.57" d="M5.99512e-06 13.0007C-0.000701679 15.5049 0.697048 17.953 2.00502 20.0355C3.31299 22.118 5.17243 23.7413 7.34819 24.7003C9.52395 25.6592 11.9183 25.9106 14.2285 25.4227C16.5386 24.9348 18.6608 23.7296 20.3267 21.9593C21.9926 20.1891 23.1273 17.9334 23.5873 15.4775C24.0474 13.0216 23.8121 10.4758 22.9112 8.16211C22.0104 5.84839 20.4845 3.87065 18.5264 2.47899C16.5683 1.08733 14.266 0.344266 11.9107 0.343764C10.3464 0.341262 8.79704 0.66689 7.35129 1.302C5.90554 1.93711 4.59184 2.86922 3.48544 4.04494C2.37903 5.22066 1.50166 6.6169 0.903574 8.15369C0.305487 9.69047 -0.00156463 11.3376 5.99512e-06 13.0007Z" fill="#39C79C"/>
<path d="M18.2833 24.7104C24.3661 24.7104 29.2971 19.4678 29.2971 13.0007C29.2971 6.53363 24.3661 1.29102 18.2833 1.29102C12.2006 1.29102 7.26953 6.53363 7.26953 13.0007C7.26953 19.4678 12.2006 24.7104 18.2833 24.7104Z" fill="#72BDAC"/>
<path d="M25.2305 23.4956C30.6822 23.4956 35.1016 18.7969 35.1016 13.0007C35.1016 7.20457 30.6822 2.50586 25.2305 2.50586C19.7788 2.50586 15.3594 7.20457 15.3594 13.0007C15.3594 18.7969 19.7788 23.4956 25.2305 23.4956Z" fill="white"/>
</g>
<defs>
<linearGradient id="paint0_linear" x1="0.00390625" y1="13.0014" x2="36.7881" y2="13.0014" gradientUnits="userSpaceOnUse">
<stop stop-color="#023B52"/>
<stop offset="1" stop-color="#229381"/>
</linearGradient>
<clipPath id="clip0">
<rect width="99" height="26" fill="white"/>
</clipPath>
</defs>
</svg>
