<svg width="73" height="73" viewBox="0 0 73 73" fill="none" xmlns="http://www.w3.org/2000/svg">
<rect width="72.6" height="72.6" rx="36.3" fill="white"/>
<path d="M42.5621 24.918H29.5082C22.8957 24.918 17.5352 30.2915 17.5352 36.9201C17.5352 43.5487 22.8957 48.9222 29.5082 48.9222H42.5621C49.1746 48.9222 54.5351 43.5487 54.5351 36.9201C54.5351 30.2915 49.1746 24.918 42.5621 24.918Z" fill="url(#paint0_linear_2513_11755)"/>
<path d="M17.5273 36.9194C17.5266 39.2942 18.2285 41.6158 19.5441 43.5908C20.8597 45.5657 22.7299 47.1053 24.9184 48.0147C27.1068 48.9241 29.5152 49.1625 31.8388 48.6998C34.1624 48.2371 36.297 47.0941 37.9726 45.4153C39.6482 43.7365 40.7895 41.5973 41.2522 39.2682C41.715 36.9391 41.4783 34.5248 40.5722 32.3306C39.6661 30.1364 38.1313 28.2608 36.1618 26.941C34.1923 25.6212 31.8766 24.9165 29.5075 24.916C27.9341 24.9137 26.3757 25.2225 24.9215 25.8248C23.4673 26.4271 22.146 27.3111 21.0331 28.4261C19.9203 29.5411 19.0378 30.8652 18.4362 32.3226C17.8346 33.78 17.5258 35.3421 17.5273 36.9194Z" fill="#3A3A3A"/>
<path d="M35.914 48.0244C42.0322 48.0244 46.992 43.0525 46.992 36.9194C46.992 30.7863 42.0322 25.8145 35.914 25.8145C29.7957 25.8145 24.8359 30.7863 24.8359 36.9194C24.8359 43.0525 29.7957 48.0244 35.914 48.0244Z" fill="#797979"/>
<path d="M42.9033 46.8715C48.3868 46.8715 52.832 42.4155 52.832 36.9187C52.832 31.4219 48.3868 26.9658 42.9033 26.9658C37.4198 26.9658 32.9746 31.4219 32.9746 36.9187C32.9746 42.4155 37.4198 46.8715 42.9033 46.8715Z" fill="#F3F3F3"/>
<defs>
<linearGradient id="paint0_linear_2513_11755" x1="17.5352" y1="36.9201" x2="54.5339" y2="36.9201" gradientUnits="userSpaceOnUse">
<stop stop-color="#101010"/>
<stop offset="1" stop-color="#676767"/>
</linearGradient>
</defs>
</svg>
