<svg width="73" height="73" viewBox="0 0 73 73" fill="none" xmlns="http://www.w3.org/2000/svg">
<rect width="72.6" height="72.6" rx="36.3" fill="white"/>
<path d="M20.7617 29.4658V28.0104C20.3528 28.0104 19.9627 28.1824 19.687 28.4843C19.4112 28.7863 19.2752 29.1903 19.3122 29.5976L20.7617 29.4658ZM51.8117 29.4658L53.2612 29.5976C53.2982 29.1903 53.1622 28.7863 52.8865 28.4843C52.6107 28.1824 52.2206 28.0104 51.8117 28.0104V29.4658ZM20.7617 30.9213H51.8117V28.0104H20.7617V30.9213ZM50.3622 29.334L48.7425 47.1511L51.6415 47.4146L53.2612 29.5976L50.3622 29.334ZM46.3267 49.3572H26.2468V52.2682H46.3267V49.3572ZM23.8309 47.1511L22.2112 29.334L19.3122 29.5976L20.932 47.4146L23.8309 47.1511ZM26.2468 49.3572C24.9921 49.3572 23.9445 48.4005 23.8309 47.1511L20.932 47.4146C21.1819 50.1634 23.4866 52.2682 26.2468 52.2682V49.3572ZM48.7425 47.1511C48.6289 48.4005 47.5813 49.3572 46.3267 49.3572V52.2682C49.0869 52.2682 51.3916 50.1634 51.6415 47.4146L48.7425 47.1511Z" fill="#383838"/>
<path fill-rule="evenodd" clip-rule="evenodd" d="M36.2922 21.2176C32.8089 21.2176 29.9852 24.0413 29.9852 27.5246V33.3465C29.9852 34.1503 29.3335 34.802 28.5297 34.802C27.7259 34.802 27.0742 34.1503 27.0742 33.3465V27.5246C27.0742 22.4337 31.2012 18.3066 36.2922 18.3066C41.3831 18.3066 45.5102 22.4337 45.5102 27.5246V33.3465C45.5102 34.1503 44.8585 34.802 44.0547 34.802C43.2509 34.802 42.5992 34.1503 42.5992 33.3465V27.5246C42.5992 24.0413 39.7755 21.2176 36.2922 21.2176Z" fill="#383838"/>
</svg>
