<svg width="73" height="73" viewBox="0 0 73 73" fill="none" xmlns="http://www.w3.org/2000/svg">
<rect width="72.6" height="72.6" rx="36.3" fill="white"/>
<path d="M22.3598 30.3701C22.36 33.4887 24.6706 36.0154 27.5266 36.0154C30.3965 36.0154 32.6934 33.4748 32.6934 30.3566C32.6934 27.3155 30.3941 24.844 27.5266 24.844C24.686 24.844 22.3464 27.3553 22.3598 30.3701ZM22.3598 30.3701C22.3598 30.37 22.3598 30.3699 22.3598 30.3699H22.4598L22.3598 30.3703C22.3598 30.3702 22.3598 30.3702 22.3598 30.3701ZM37.015 29.3193L37.015 29.3196C37.0285 32.8379 39.6723 35.7095 42.9398 35.7095C46.2209 35.7095 48.8646 32.8243 48.8646 29.2927C48.8646 25.8118 46.2319 23.0221 42.9398 23.0221C39.6874 23.0221 37.015 25.852 37.015 29.3193ZM30.5454 48.2369H30.9162L30.5957 48.0505C29.8991 47.6452 29.4255 46.7128 29.5145 45.8734L29.5262 45.7628H29.4151H20.0927C19.9803 45.7628 19.9212 45.7361 19.8891 45.704C19.857 45.6719 19.8336 45.6162 19.8336 45.5171C19.8336 44.0342 20.7023 42.5745 22.1041 41.4816C23.5046 40.3898 25.4279 39.6725 27.5133 39.6725C28.9876 39.6725 30.4599 40.0414 31.5872 40.6706L31.6664 40.7148L31.7181 40.6403C32.1631 39.999 32.7124 39.4496 33.4328 38.978L33.5648 38.8916L33.4304 38.8091C31.7244 37.7613 29.6048 37.1985 27.5133 37.1985C21.8492 37.1985 17.2398 41.2444 17.2398 45.7298C17.2398 46.5484 17.4863 47.182 17.9936 47.6084C18.4977 48.032 19.2431 48.2369 20.2124 48.2369H30.5454ZM42.9398 33.1823C41.1727 33.1823 39.6487 31.5121 39.6487 29.306C39.6487 27.1822 41.1572 25.5493 42.9398 25.5493C44.7361 25.5493 46.231 27.156 46.231 29.2927C46.231 31.4864 44.7194 33.1823 42.9398 33.1823ZM27.5266 33.5147C26.0921 33.5147 24.8472 32.1372 24.8472 30.3699C24.8472 28.6849 26.0766 27.3314 27.5266 27.3314C29.0041 27.3314 30.2194 28.6591 30.2194 30.3566C30.2194 32.1371 28.9745 33.5147 27.5266 33.5147ZM51.2249 48.2369C52.3823 48.2369 53.2607 48.0536 53.8521 47.6582C54.4513 47.2575 54.7427 46.6483 54.7427 45.8362C54.7427 43.9686 53.5775 41.8116 51.5278 40.1253C49.4752 38.4367 46.5271 37.2118 42.9398 37.2118C39.3526 37.2118 36.4044 38.4367 34.3518 40.1253C32.3022 41.8116 31.137 43.9686 31.137 45.8362C31.137 46.6483 31.4283 47.2575 32.0275 47.6582C32.6189 48.0536 33.4973 48.2369 34.6547 48.2369H51.2249ZM34.2292 45.7096C34.0837 45.7096 34.0065 45.6835 33.9655 45.6495C33.9293 45.6195 33.9036 45.5679 33.9036 45.4639C33.9036 44.9801 34.0998 44.38 34.4932 43.7482C34.8857 43.1178 35.4708 42.4619 36.2386 41.8675C37.7738 40.6792 40.0363 39.739 42.9398 39.739C45.8433 39.739 48.1058 40.6792 49.641 41.8675C50.4089 42.4619 50.9939 43.1178 51.3865 43.7482C51.7798 44.38 51.976 44.9801 51.976 45.4639C51.976 45.5678 51.9504 45.6188 51.9134 45.6488C51.8708 45.6832 51.79 45.7096 51.6372 45.7096H34.2292Z" fill="#383838" stroke="#383838" stroke-width="0.2"/>
</svg>
