<svg width="21" height="22" viewBox="0 0 21 22" fill="none" xmlns="http://www.w3.org/2000/svg">
<path d="M19.25 1.69231H16.625V0.846154C16.625 0.62174 16.5328 0.406517 16.3687 0.247833C16.2046 0.0891481 15.9821 0 15.75 0C15.5179 0 15.2954 0.0891481 15.1313 0.247833C14.9672 0.406517 14.875 0.62174 14.875 0.846154V1.69231H6.125V0.846154C6.125 0.62174 6.03281 0.406517 5.86872 0.247833C5.70462 0.0891481 5.48206 0 5.25 0C5.01794 0 4.79538 0.0891481 4.63128 0.247833C4.46719 0.406517 4.375 0.62174 4.375 0.846154V1.69231H1.75C1.28601 1.69275 0.841159 1.87119 0.513069 2.18846C0.18498 2.50574 0.000458378 2.93592 0 3.38462V20.3077C0.000458378 20.7564 0.18498 21.1866 0.513069 21.5038C0.841159 21.8211 1.28601 21.9996 1.75 22H19.25C19.714 21.9996 20.1588 21.8211 20.4869 21.5038C20.815 21.1866 20.9995 20.7564 21 20.3077V3.38462C20.9995 2.93592 20.815 2.50574 20.4869 2.18846C20.1588 1.87119 19.714 1.69275 19.25 1.69231ZM15.0378 12.4616L9.93363 17.1154C9.77102 17.2637 9.55588 17.3462 9.33235 17.3459C9.10883 17.3457 8.89389 17.2627 8.73163 17.1141L5.96078 14.5756C5.87716 14.4992 5.80992 14.4077 5.76293 14.3061C5.71594 14.2046 5.6901 14.0951 5.68691 13.9839C5.68371 13.8728 5.70321 13.7621 5.7443 13.6582C5.78539 13.5543 5.84725 13.4592 5.92636 13.3785C6.00546 13.2977 6.10026 13.2329 6.20531 13.1876C6.31037 13.1423 6.42362 13.1175 6.53861 13.1146C6.65359 13.1116 6.76804 13.1307 6.8754 13.1706C6.98277 13.2105 7.08095 13.2704 7.16433 13.3471L9.33479 15.3355L13.8373 11.2303C13.9209 11.1541 14.0192 11.0946 14.1266 11.0551C14.234 11.0156 14.3484 10.9969 14.4633 11.0002C14.5781 11.0035 14.6912 11.0286 14.796 11.0741C14.9008 11.1196 14.9953 11.1847 15.0741 11.2655C15.153 11.3464 15.2146 11.4414 15.2554 11.5453C15.2962 11.6491 15.3155 11.7598 15.3121 11.8708C15.3087 11.9819 15.2828 12.0912 15.2357 12.1926C15.1886 12.2939 15.1214 12.3853 15.0378 12.4616H15.0378ZM19.25 6.76923H1.75V3.38462H4.375V4.23077C4.375 4.45518 4.46719 4.67041 4.63128 4.82909C4.79538 4.98777 5.01794 5.07692 5.25 5.07692C5.48206 5.07692 5.70462 4.98777 5.86872 4.82909C6.03281 4.67041 6.125 4.45518 6.125 4.23077V3.38462H14.875V4.23077C14.875 4.45518 14.9672 4.67041 15.1313 4.82909C15.2954 4.98777 15.5179 5.07692 15.75 5.07692C15.9821 5.07692 16.2046 4.98777 16.3687 4.82909C16.5328 4.67041 16.625 4.45518 16.625 4.23077V3.38462H19.25V6.76923Z" fill="black"/>
</svg>
