<svg width="24" height="22" viewBox="0 0 24 22" fill="none" xmlns="http://www.w3.org/2000/svg">
<path d="M22.1538 3.66667H17.5376V2.75C17.5367 2.02091 17.2447 1.32192 16.7255 0.806377C16.2064 0.290833 15.5025 0.000833982 14.7683 0H9.22987C8.49568 0.000833982 7.7918 0.290833 7.27265 0.806377C6.7535 1.32192 6.46148 2.02091 6.46064 2.75V3.66667H1.84615C1.3567 3.66722 0.887444 3.86056 0.541344 4.20425C0.195244 4.54795 0.000559775 5.01394 0 5.5V20.1667C0.000559775 20.6527 0.195244 21.1187 0.541344 21.4624C0.887444 21.8061 1.3567 21.9994 1.84615 22H22.1538C22.6433 21.9994 23.1126 21.8061 23.4587 21.4624C23.8048 21.1187 23.9994 20.6527 24 20.1667V5.5C23.9994 5.01394 23.8048 4.54795 23.4587 4.20425C23.1126 3.86056 22.6433 3.66722 22.1538 3.66667ZM8.30679 2.75C8.30707 2.50697 8.40441 2.27397 8.57746 2.10213C8.75051 1.93028 8.98514 1.83361 9.22987 1.83333H14.7683C15.0131 1.83361 15.2477 1.93028 15.4207 2.10213C15.5938 2.27397 15.6911 2.50697 15.6914 2.75V3.66667H8.30679V2.75ZM22.1538 5.5L22.1542 10.2674C19.0382 11.9518 15.5469 12.834 11.9991 12.8333C8.45217 12.834 4.96159 11.9522 1.84615 10.2685V5.5H22.1538ZM9.69141 10.0833C9.69142 9.84022 9.78867 9.60707 9.96178 9.43517C10.1349 9.26326 10.3697 9.16668 10.6145 9.16667H13.3837C13.6285 9.16667 13.8633 9.26324 14.0364 9.43515C14.2095 9.60706 14.3068 9.84022 14.3068 10.0833C14.3068 10.3264 14.2095 10.5596 14.0364 10.7315C13.8633 10.9034 13.6285 11 13.3837 11H10.6145C10.3697 11 10.1349 10.9034 9.96178 10.7315C9.78867 10.5596 9.69142 10.3264 9.69141 10.0833Z" fill="black"/>
</svg>
