<svg width="17" height="22" viewBox="0 0 17 22" fill="none" xmlns="http://www.w3.org/2000/svg">
<path d="M15.4545 20.4286H10.6771C11.4809 19.7001 12.239 18.921 12.9468 18.0959C15.5984 14.9952 17 11.7264 17 8.64286C17 6.35063 16.1045 4.15228 14.5104 2.53143C12.9163 0.910584 10.7543 0 8.5 0C6.24566 0 4.08365 0.910584 2.48959 2.53143C0.895533 4.15228 0 6.35063 0 8.64286C0 11.7264 1.40161 14.9952 4.05323 18.0959C4.76105 18.921 5.51908 19.7001 6.32286 20.4286H1.54545C1.34051 20.4286 1.14397 20.5114 0.999054 20.6587C0.854139 20.8061 0.772727 21.0059 0.772727 21.2143C0.772727 21.4227 0.854139 21.6225 0.999054 21.7699C1.14397 21.9172 1.34051 22 1.54545 22H15.4545C15.6595 22 15.856 21.9172 16.0009 21.7699C16.1459 21.6225 16.2273 21.4227 16.2273 21.2143C16.2273 21.0059 16.1459 20.8061 16.0009 20.6587C15.856 20.5114 15.6595 20.4286 15.4545 20.4286ZM8.50002 5.5C9.11135 5.5 9.70894 5.68433 10.2172 6.02967C10.7255 6.37501 11.1217 6.86586 11.3557 7.44014C11.5896 8.01442 11.6508 8.64634 11.5315 9.256C11.4123 9.86565 11.1179 10.4257 10.6856 10.8652C10.2534 11.3047 9.70261 11.6041 9.10303 11.7253C8.50345 11.8466 7.88197 11.7844 7.31718 11.5465C6.75239 11.3086 6.26966 10.9058 5.93003 10.3889C5.59039 9.87209 5.40911 9.26446 5.40911 8.64286C5.40911 8.23013 5.48906 7.82144 5.64439 7.44013C5.79972 7.05882 6.02739 6.71236 6.31441 6.42051C6.60143 6.12867 6.94217 5.89717 7.31718 5.73923C7.69219 5.58129 8.09412 5.5 8.50002 5.5Z" fill="black"/>
</svg>
